<?xml version="1.0" encoding="UTF-8"?><svg xmlns="http://www.w3.org/2000/svg" xmlns:xlink="http://www.w3.org/1999/xlink" height="311.4" preserveAspectRatio="xMidYMid meet" version="1.0" viewBox="67.0 56.9 295.8 311.4" width="295.8" zoomAndPan="magnify"><g fill="#d7d7d7" id="change1_1"><path d="M 196.347656 368.308594 C 194.976562 368.308594 193.664062 368.0625 193.777344 367.421875 C 193.984375 366.246094 191.613281 365.527344 192.625 364.859375 C 193.636719 364.1875 192.824219 363.554688 193.257812 362.84375 C 193.320312 362.734375 193.457031 362.6875 193.640625 362.6875 C 194.683594 362.6875 197.320312 364.207031 198.011719 365.15625 C 198.824219 366.273438 201.78125 366.675781 201.851562 367.90625 C 201.851562 367.90625 201.003906 367.636719 200.179688 367.636719 C 199.785156 367.636719 199.398438 367.695312 199.109375 367.878906 C 198.695312 368.132812 197.503906 368.308594 196.347656 368.308594" fill="inherit"/><path d="M 207.867188 244.5625 C 207.222656 244.5625 206.644531 244.367188 206.496094 243.847656 C 206.242188 242.9375 206.414062 242.589844 206.269531 242.589844 C 206.222656 242.589844 206.132812 242.628906 205.976562 242.707031 C 205.9375 242.726562 205.90625 242.734375 205.882812 242.734375 C 205.578125 242.734375 207.027344 240.921875 207.027344 240.921875 C 207.027344 240.921875 207.601562 240.832031 208.25 240.832031 C 208.964844 240.832031 209.765625 240.9375 209.992188 241.382812 C 210.425781 242.230469 210.421875 243.171875 209.980469 243.835938 C 209.730469 244.214844 208.738281 244.5625 207.867188 244.5625" fill="inherit"/><path d="M 212.957031 122.703125 C 209.515625 122.703125 204.9375 121.523438 204.9375 121.523438 C 204.816406 121.523438 204.757812 121.523438 204.636719 121.523438 C 204.636719 121.523438 209.675781 114.164062 212.574219 114.109375 C 211.574219 116.652344 213.503906 118.363281 215.0625 118.363281 C 215.246094 118.363281 215.425781 118.339844 215.59375 118.292969 C 215.59375 118.292969 215.726562 118.199219 215.902344 118.199219 C 216.253906 118.199219 216.777344 118.589844 216.6875 120.96875 C 216.636719 122.289062 214.996094 122.703125 212.957031 122.703125" fill="inherit"/><path d="M 187.578125 88.933594 C 187.542969 88.933594 187.507812 88.925781 187.46875 88.910156 C 187.070312 88.753906 185.171875 87.328125 184.121094 87.328125 C 183.757812 87.328125 183.492188 87.503906 183.4375 87.96875 C 183.4375 87.96875 183.390625 88.746094 182.785156 88.847656 C 182.648438 88.871094 182.421875 88.894531 182.171875 88.894531 C 181.304688 88.894531 180.136719 88.609375 181.289062 87.007812 C 182.574219 85.222656 183.207031 84.59375 184.070312 84.59375 C 184.207031 84.59375 184.351562 84.609375 184.503906 84.636719 C 185.617188 84.855469 188.226562 85.644531 188.175781 86.722656 C 188.128906 87.71875 188.023438 88.933594 187.578125 88.933594" fill="inherit"/><path d="M 173.699219 80.707031 C 173.613281 80.707031 173.574219 80.671875 173.589844 80.585938 C 173.714844 79.914062 171.664062 80.039062 172.515625 79.050781 C 173.359375 78.058594 174.148438 77.789062 174.148438 77.789062 C 174.222656 77.773438 174.335938 77.769531 174.472656 77.769531 C 174.734375 77.769531 175.082031 77.792969 175.390625 77.816406 C 175.699219 77.839844 175.972656 77.863281 176.09375 77.863281 C 176.121094 77.863281 176.144531 77.859375 176.148438 77.855469 L 177.035156 77.953125 C 176.996094 78.332031 176.980469 78.523438 176.941406 78.90625 C 176.941406 78.90625 174.28125 80.707031 173.699219 80.707031" fill="inherit"/><path d="M 156.980469 82.957031 C 154.03125 82.957031 152.167969 81.4375 152.167969 81.4375 C 154.324219 80.929688 155.414062 80.6875 157.597656 80.230469 C 157.652344 79.917969 157.683594 79.761719 157.738281 79.449219 C 155.9375 79.828125 155.042969 80.027344 153.261719 80.445312 C 153.339844 80.046875 153.382812 79.847656 153.464844 79.453125 C 153.464844 79.453125 155.167969 79.320312 155.441406 78.890625 C 155.714844 78.457031 155.671875 78.136719 153.953125 77.976562 C 153.914062 77.972656 153.875 77.972656 153.835938 77.972656 C 152.074219 77.972656 148.644531 81.320312 148.644531 81.320312 C 148.226562 80.523438 148.019531 80.128906 147.621094 79.351562 C 153.238281 74.167969 156.695312 72.847656 158.765625 72.847656 C 160.914062 72.847656 161.5625 74.273438 161.5625 74.273438 C 162.867188 74.429688 163.527344 74.511719 164.859375 74.699219 C 165.625 74.121094 166.003906 73.835938 166.765625 73.265625 C 166.976562 74.007812 167.085938 74.382812 167.308594 75.132812 C 168.105469 74.210938 168.5 73.746094 169.289062 72.832031 C 170.160156 72.6875 170.601562 72.613281 171.476562 72.480469 C 171.476562 72.480469 169.082031 76.171875 169.734375 76.171875 C 169.742188 76.171875 169.753906 76.171875 169.765625 76.167969 C 169.796875 76.164062 169.824219 76.160156 169.855469 76.160156 C 170.605469 76.160156 171.589844 77.464844 171.589844 77.464844 C 171.589844 77.464844 169.886719 78.707031 167.902344 80.085938 C 167.183594 80.585938 166.601562 80.738281 166.0625 80.738281 C 165.640625 80.738281 165.242188 80.644531 164.820312 80.546875 C 164.398438 80.453125 163.953125 80.359375 163.4375 80.359375 C 163.3125 80.359375 163.183594 80.367188 163.050781 80.378906 C 161.105469 80.558594 161.992188 82.300781 158.292969 82.855469 C 157.835938 82.925781 157.398438 82.957031 156.980469 82.957031" fill="inherit"/><path d="M 100.707031 118.277344 C 100.660156 118.277344 100.632812 118.246094 100.628906 118.167969 C 100.59375 117.679688 101.238281 116.910156 101.625 116.410156 C 101.875 116.085938 102.375 115.710938 102.5625 115.710938 C 102.664062 115.710938 102.679688 115.816406 102.523438 116.09375 C 102.371094 116.363281 102.359375 116.4375 102.410156 116.4375 C 102.441406 116.4375 102.492188 116.414062 102.554688 116.390625 C 102.613281 116.367188 102.683594 116.34375 102.746094 116.34375 C 102.835938 116.34375 102.914062 116.386719 102.953125 116.535156 C 103.101562 117.089844 103.273438 117.328125 102.8125 117.566406 C 102.714844 117.617188 102.609375 117.640625 102.5 117.640625 C 102.09375 117.640625 101.664062 117.351562 101.664062 117.351562 C 101.664062 117.351562 100.953125 118.277344 100.707031 118.277344" fill="inherit"/><path d="M 99.964844 121.074219 C 99.964844 121.074219 99.941406 119.390625 101.742188 118.707031 C 101.929688 118.640625 102.066406 118.609375 102.167969 118.609375 C 103.046875 118.609375 100.96875 121.027344 100.96875 121.027344 C 100.5625 121.046875 100.363281 121.054688 99.964844 121.074219" fill="inherit"/><path d="M 98.464844 132.371094 C 98.464844 132.371094 96.574219 132.066406 96.546875 130.542969 C 96.546875 130.542969 97.28125 128.089844 99.132812 128.089844 C 99.246094 128.089844 99.363281 128.097656 99.488281 128.117188 C 101.597656 128.460938 100.257812 131.542969 100.460938 131.847656 C 100.660156 132.15625 98.464844 132.371094 98.464844 132.371094" fill="inherit"/><path d="M 177.6875 74.808594 C 177.175781 74.808594 176.574219 74.695312 176.574219 74.695312 C 176.574219 74.695312 176.875 73.828125 174.84375 73.128906 C 174.796875 72.777344 174.769531 72.605469 174.722656 72.257812 C 174.789062 72.21875 175.265625 72.210938 175.734375 72.210938 C 176.214844 72.210938 176.6875 72.222656 176.6875 72.222656 C 176.6875 72.222656 176.929688 72.75 177.386719 72.75 C 177.441406 72.75 177.496094 72.742188 177.554688 72.726562 C 178.121094 72.574219 178.429688 71.003906 178.429688 71.003906 C 178.882812 70.945312 179.105469 70.921875 179.5625 70.867188 C 180.824219 70.402344 181.457031 70.171875 182.71875 69.722656 C 182.71875 69.722656 182.347656 72.980469 179.789062 73.566406 C 178.769531 73.675781 178.5625 74.265625 178.359375 74.628906 C 178.28125 74.765625 178.003906 74.808594 177.6875 74.808594" fill="inherit"/><path d="M 183.679688 72.4375 C 183.539062 72.4375 183.382812 72.425781 183.210938 72.402344 C 183.210938 72.402344 182.699219 70.574219 185.703125 69.535156 C 187.019531 69.078125 187.765625 68.949219 188.1875 68.949219 C 188.730469 68.949219 188.742188 69.160156 188.742188 69.160156 C 188.464844 69.972656 188.320312 70.378906 188.039062 71.195312 C 188.039062 71.195312 186.957031 70.84375 186.179688 70.84375 C 185.902344 70.84375 185.660156 70.890625 185.523438 71.015625 C 185.054688 71.4375 185.097656 72.4375 183.679688 72.4375" fill="inherit"/><path d="M 206.746094 91.039062 C 205.8125 91.039062 204.050781 90.773438 203.984375 90.746094 C 203.902344 90.71875 199.640625 88.867188 199.421875 85.734375 C 199.421875 85.785156 199.3125 85.804688 199.140625 85.804688 C 198.53125 85.804688 197.160156 85.554688 197.160156 85.554688 C 197.160156 85.554688 196.484375 86.6875 195.089844 86.6875 C 194.890625 86.6875 194.675781 86.660156 194.445312 86.609375 C 192.65625 86.195312 193.382812 84.289062 197.332031 84.289062 C 197.429688 84.289062 197.523438 84.292969 197.621094 84.296875 C 199.789062 84.34375 199.792969 84.355469 199.792969 84.355469 C 200.4375 83.097656 200.792969 82.40625 203.0625 81.550781 C 203.101562 81.535156 203.144531 81.53125 203.1875 81.53125 C 203.835938 81.53125 205.367188 82.78125 205.367188 82.78125 C 206.085938 82.375 206.441406 82.175781 207.152344 81.773438 C 207.152344 81.773438 201.8125 76.933594 201.019531 75.195312 C 200.792969 74.695312 200.5 74.507812 200.1875 74.507812 C 199.410156 74.507812 198.488281 75.648438 198.027344 75.988281 C 197.75 76.191406 197.371094 76.253906 197.03125 76.253906 C 196.578125 76.253906 196.1875 76.148438 196.1875 76.148438 C 196.1875 76.148438 194.09375 75.402344 192.910156 75.402344 C 192.613281 75.402344 192.375 75.449219 192.238281 75.566406 C 191.957031 75.804688 191.425781 75.894531 190.890625 75.894531 C 190.140625 75.894531 189.390625 75.722656 189.355469 75.570312 C 189.285156 75.316406 188.503906 73.441406 188.503906 73.441406 C 188.503906 73.441406 191.316406 69.335938 194.796875 69.335938 C 195.050781 69.335938 195.3125 69.359375 195.574219 69.40625 C 195.566406 69.699219 195.5625 69.847656 195.554688 70.136719 C 195.902344 70.257812 196.078125 70.316406 196.429688 70.4375 C 196.429688 70.4375 196.746094 70.554688 197.105469 70.554688 C 197.53125 70.554688 198.023438 70.390625 198.132812 69.679688 C 198.921875 69.652344 199.316406 69.640625 200.109375 69.621094 C 201.566406 70.734375 202.3125 71.300781 203.808594 72.449219 C 204.824219 72.054688 205.335938 71.859375 206.34375 71.480469 C 206.34375 71.480469 207.671875 74.136719 212.363281 75.707031 C 212.472656 76.304688 212.527344 76.601562 212.636719 77.199219 C 212.636719 77.199219 214.292969 80.777344 215.992188 81.578125 C 217.6875 82.378906 214.246094 84.796875 214.246094 84.796875 C 212.683594 83.949219 211.902344 83.535156 210.351562 82.714844 C 210.351562 82.714844 210.253906 82.695312 210.117188 82.695312 C 209.675781 82.695312 208.820312 82.898438 209.445312 84.617188 C 210.269531 86.871094 210.023438 87.921875 209.378906 88.839844 C 209.292969 88.960938 209.195312 89.011719 209.085938 89.011719 C 208.765625 89.011719 208.351562 88.542969 207.886719 88.074219 C 207.425781 87.605469 206.914062 87.136719 206.398438 87.136719 C 206.308594 87.136719 206.222656 87.148438 206.132812 87.179688 C 204.835938 87.609375 205.734375 88.824219 207.136719 89.332031 C 208.535156 89.835938 207.632812 90.730469 207.273438 90.96875 C 207.195312 91.019531 207.003906 91.039062 206.746094 91.039062" fill="inherit"/><path d="M 203.367188 68.757812 C 202.921875 68.753906 202.585938 68.753906 202.25 68.753906 C 201.914062 68.753906 201.578125 68.753906 201.132812 68.757812 C 201.144531 68.527344 201.148438 68.414062 201.160156 68.1875 C 200.65625 68.1875 200.214844 68.1875 199.800781 68.1875 C 198.433594 68.1875 197.414062 68.199219 195.765625 68.238281 C 195.746094 68.054688 195.738281 67.964844 195.722656 67.785156 C 195.722656 67.785156 191.441406 68.019531 191.320312 68.03125 C 191.320312 67.984375 191.417969 65.398438 193.96875 65.398438 C 194.910156 65.398438 196.179688 65.75 197.902344 66.707031 C 200.898438 66.566406 202.417969 66.527344 205.414062 66.503906 C 205.414062 66.503906 206.027344 67.46875 203.367188 68.757812 M 191.320312 68.03125 C 191.316406 68.03125 191.316406 68.03125 191.320312 68.03125" fill="inherit"/><path d="M 200.589844 61.703125 C 200.589844 61.703125 196.320312 61.238281 196.265625 61.078125 C 195.601562 59.164062 199.601562 57.808594 201.21875 57.808594 C 201.351562 57.808594 201.464844 57.816406 201.5625 57.835938 C 202.847656 58.074219 204.054688 60.0625 202.605469 60.117188 C 201.148438 60.171875 200.589844 61.703125 200.589844 61.703125" fill="inherit"/><path d="M 207.25 66.246094 C 206.800781 66.246094 206.328125 65.90625 206.328125 65.90625 C 206.328125 65.90625 204.613281 64.4375 204.289062 64.4375 C 204.28125 64.4375 204.273438 64.441406 204.269531 64.441406 C 204.015625 64.523438 202.65625 64.628906 202.65625 64.628906 C 202.65625 64.628906 201.183594 65.039062 200.433594 65.039062 C 200.277344 65.039062 200.152344 65.019531 200.074219 64.976562 C 199.648438 64.730469 198.171875 63.21875 198.171875 63.21875 C 199.734375 63.183594 200.808594 63.167969 202.015625 63.167969 C 202.710938 63.167969 203.453125 63.171875 204.355469 63.183594 C 204.355469 62.847656 204.355469 62.683594 204.351562 62.347656 C 203.824219 62.34375 203.5625 62.339844 203.035156 62.335938 C 203.132812 61.9375 203.179688 61.738281 203.269531 61.339844 C 204.011719 61.34375 204.382812 61.347656 205.117188 61.355469 C 205.121094 61.667969 205.125 61.824219 205.128906 62.136719 C 205.644531 62.144531 205.898438 62.148438 206.410156 62.160156 C 206.410156 62.160156 204.328125 59.777344 205.648438 59.777344 C 205.65625 59.777344 205.664062 59.777344 205.671875 59.777344 C 205.785156 59.777344 212.894531 60.066406 213.8125 60.128906 L 213.90625 60.132812 C 214.34375 59.710938 214.5625 59.496094 214.992188 59.078125 C 211.675781 58.652344 210.007812 58.480469 206.65625 58.21875 C 206.648438 57.769531 206.644531 57.546875 206.636719 57.097656 C 209.855469 56.960938 212.519531 56.886719 214.980469 56.886719 C 219.800781 56.886719 223.84375 57.167969 229.765625 57.804688 L 229.820312 57.8125 L 229.820312 57.816406 C 230.078125 60.921875 222.398438 59.949219 217.269531 61.148438 C 217.269531 61.148438 208.3125 64.664062 207.929688 65.722656 C 207.785156 66.121094 207.523438 66.246094 207.25 66.246094" fill="inherit"/><path d="M 237.039062 96.339844 C 236.039062 96.339844 234.984375 95.945312 234.257812 94.6875 C 232.535156 91.710938 229.171875 93.546875 230.523438 87.273438 C 231.871094 80.996094 228.773438 82.539062 230.636719 81.617188 C 232.496094 80.695312 233.078125 74.78125 233.078125 74.78125 L 231.742188 73.976562 C 231.742188 73.976562 230.78125 67.472656 227.730469 67.355469 C 217.679688 66.96875 218.59375 62.527344 218.59375 62.527344 C 218.53125 62.1875 219.296875 62.152344 220.554688 62.152344 C 220.699219 62.152344 220.855469 62.152344 221.011719 62.152344 C 221.171875 62.15625 221.339844 62.15625 221.507812 62.15625 C 224.199219 62.15625 228.292969 62.046875 231.777344 60.140625 C 232.164062 60.03125 232.578125 59.984375 233.015625 59.984375 C 236.304688 59.984375 240.792969 62.730469 242.738281 63.046875 C 248.691406 63.761719 251.574219 64.277344 257.132812 65.621094 C 261.367188 67.371094 263.457031 68.3125 267.570312 70.328125 C 267.570312 70.328125 269.441406 71.496094 270.757812 72.816406 C 272.074219 74.140625 275.066406 74.785156 275.066406 74.785156 C 275.066406 74.785156 275.335938 75.609375 274.4375 75.609375 C 274.097656 75.609375 273.589844 75.488281 272.832031 75.160156 C 270.941406 74.339844 270.605469 74.210938 270.582031 74.210938 C 270.570312 74.210938 270.621094 74.238281 270.621094 74.238281 C 270.339844 74.890625 270.191406 75.222656 269.878906 75.90625 C 269.878906 75.90625 270.667969 76.445312 270.601562 76.96875 C 270.527344 77.488281 269.96875 79.710938 269.527344 80.175781 C 269.300781 80.421875 267.859375 80.570312 266.484375 80.570312 C 265.617188 80.570312 264.777344 80.511719 264.273438 80.378906 C 265.410156 81.273438 268.332031 83.964844 268.765625 84.769531 C 268.960938 85.132812 268.773438 85.253906 268.445312 85.253906 C 267.835938 85.253906 266.738281 84.839844 266.738281 84.839844 C 266.738281 84.839844 264.203125 81.84375 263.648438 81.84375 C 263.628906 81.84375 263.609375 81.851562 263.59375 81.859375 C 263.191406 82.128906 263.839844 82.765625 263.84375 83.257812 C 263.84375 83.515625 263.570312 83.550781 263.285156 83.550781 C 263.234375 83.550781 263.183594 83.546875 263.132812 83.546875 C 263.085938 83.546875 263.035156 83.546875 262.988281 83.546875 C 262.839844 83.546875 262.71875 83.554688 262.667969 83.613281 C 262.507812 83.789062 263.65625 84.667969 264.132812 84.667969 C 264.160156 84.667969 264.191406 84.664062 264.214844 84.65625 C 264.292969 84.628906 264.414062 84.621094 264.558594 84.621094 C 265.148438 84.621094 266.125 84.792969 266.125 84.792969 C 266.125 84.792969 267.445312 86.273438 267.347656 86.539062 C 267.316406 86.613281 266.832031 86.640625 266.132812 86.640625 C 264.332031 86.640625 261.101562 86.460938 260.4375 86.4375 C 259.511719 86.402344 257.976562 85.964844 257.753906 85.179688 C 257.722656 85.066406 257.59375 85.015625 257.394531 85.015625 C 256.195312 85.015625 252.464844 86.804688 252.027344 87.597656 C 251.679688 88.230469 249.101562 88.433594 247.230469 88.433594 C 246.351562 88.433594 245.632812 88.390625 245.363281 88.324219 C 245.351562 88.320312 245.339844 88.320312 245.328125 88.320312 C 244.402344 88.320312 240.167969 94.945312 239.851562 95.363281 C 239.667969 95.609375 238.40625 96.339844 237.039062 96.339844" fill="inherit"/><path d="M 273.753906 98.136719 C 273.367188 98.136719 273.089844 98.105469 272.992188 98.039062 C 272.476562 97.691406 268.445312 96.125 267.835938 95.132812 C 267.808594 95.011719 267.792969 94.953125 267.765625 94.835938 C 267.820312 94.597656 268.632812 92.910156 270.121094 92.910156 C 270.265625 92.910156 270.410156 92.925781 270.566406 92.960938 C 272.171875 93.308594 273.808594 93.855469 274.550781 93.855469 C 274.628906 93.855469 274.695312 93.847656 274.753906 93.835938 C 274.777344 93.828125 274.804688 93.824219 274.835938 93.824219 C 275.558594 93.824219 277.898438 95.277344 278.542969 96.503906 C 279.089844 97.539062 275.421875 98.136719 273.753906 98.136719" fill="inherit"/><path d="M 151.601562 179.539062 C 151.070312 178.53125 150.8125 178.03125 150.289062 177.03125 C 150.496094 176.441406 150.597656 176.148438 150.804688 175.558594 C 151.328125 175.535156 151.59375 175.523438 152.121094 175.503906 C 152.140625 175.050781 152.148438 174.820312 152.167969 174.363281 C 151.722656 174.382812 151.496094 174.394531 151.054688 174.410156 C 151.109375 173.410156 151.144531 172.910156 151.203125 171.910156 C 152.832031 171.839844 153.644531 171.804688 155.285156 171.738281 C 155.417969 172.914062 155.488281 173.503906 155.625 174.6875 C 154.8125 174.789062 154.402344 174.84375 153.589844 174.945312 C 153.703125 175.414062 153.761719 175.648438 153.875 176.121094 C 153.875 176.121094 153.746094 176.089844 153.558594 176.089844 C 153.128906 176.089844 152.402344 176.242188 152.222656 177.230469 C 151.960938 178.65625 152.820312 179.496094 152.820312 179.496094 C 152.332031 179.515625 152.089844 179.523438 151.601562 179.539062" fill="inherit"/><path d="M 157.179688 179.863281 C 156.773438 179.863281 156.460938 179.382812 156.480469 178.777344 C 156.5 178.171875 156.851562 177.664062 157.265625 177.652344 C 157.269531 177.652344 157.277344 177.652344 157.28125 177.652344 C 157.6875 177.652344 158 178.132812 157.980469 178.734375 C 157.964844 179.34375 157.609375 179.847656 157.195312 179.863281 C 157.191406 179.863281 157.183594 179.863281 157.179688 179.863281" fill="inherit"/><path d="M 157.433594 181.976562 C 156.847656 181.976562 156.390625 181.714844 156.398438 181.382812 C 156.410156 181.039062 156.914062 180.746094 157.523438 180.726562 C 157.546875 180.726562 157.566406 180.726562 157.585938 180.726562 C 158.167969 180.726562 158.621094 180.988281 158.613281 181.320312 C 158.605469 181.664062 158.101562 181.957031 157.488281 181.972656 C 157.46875 181.976562 157.453125 181.976562 157.433594 181.976562" fill="inherit"/><path d="M 158.292969 185.9375 C 157.40625 185.9375 156.707031 185.421875 156.726562 184.769531 C 156.738281 184.101562 157.496094 183.546875 158.40625 183.523438 C 158.429688 183.519531 158.449219 183.519531 158.46875 183.519531 C 159.355469 183.519531 160.050781 184.035156 160.035156 184.6875 C 160.019531 185.355469 159.265625 185.914062 158.347656 185.9375 C 158.328125 185.9375 158.3125 185.9375 158.292969 185.9375" fill="inherit"/><path d="M 154.402344 190.507812 C 154.050781 190.507812 153.824219 190.496094 153.824219 190.496094 C 153.824219 190.496094 152.011719 189.769531 150.523438 189.769531 C 150.1875 189.769531 149.867188 189.804688 149.589844 189.898438 C 149.457031 189.941406 149.355469 189.960938 149.273438 189.960938 C 148.417969 189.960938 150.101562 187.761719 150.101562 187.761719 C 150.101562 187.761719 147.066406 184.898438 142.691406 184.550781 C 142.691406 184.550781 142.410156 184.46875 141.984375 184.46875 C 141.308594 184.46875 140.261719 184.683594 139.414062 185.800781 C 138.617188 185.757812 138.21875 185.734375 137.421875 185.691406 C 137.566406 185.054688 138.917969 182.222656 142.878906 182.222656 C 142.898438 182.222656 142.921875 182.222656 142.941406 182.222656 C 146.953125 182.253906 147.484375 182.273438 150.5 184.019531 C 153.511719 185.765625 158.234375 188.074219 158.378906 189.378906 C 158.488281 190.394531 155.648438 190.507812 154.402344 190.507812" fill="inherit"/><path d="M 149.089844 195.703125 C 148.628906 195.375 148.398438 195.214844 147.9375 194.890625 C 147.9375 194.890625 147.945312 193.070312 149.570312 193.070312 C 150.023438 193.070312 150.601562 193.210938 151.339844 193.570312 C 153.039062 194.5 152.902344 194.890625 153.058594 195.449219 C 151.46875 195.550781 150.671875 195.601562 149.089844 195.703125" fill="inherit"/><path d="M 162.859375 195.425781 C 162.019531 195.425781 160.703125 194.449219 160.777344 194.191406 C 160.804688 194.09375 160.695312 194.039062 160.53125 194.039062 C 160.167969 194.039062 159.523438 194.296875 159.457031 194.878906 C 159.425781 195.171875 159.148438 195.265625 158.800781 195.265625 C 158.136719 195.265625 157.203125 194.914062 157.203125 194.914062 C 156.609375 194.65625 156.3125 194.527344 155.722656 194.269531 C 155.878906 193.824219 155.960938 193.601562 156.117188 193.152344 C 157.851562 193.125 158.71875 193.109375 160.457031 193.082031 C 160.457031 193.082031 159.398438 190.949219 159.914062 190.398438 C 160.109375 190.191406 161.03125 190.128906 162.09375 190.128906 C 163.820312 190.128906 165.921875 190.296875 165.921875 190.296875 C 165.921875 190.296875 169.515625 191.722656 169.449219 193.378906 C 169.390625 195.03125 163.988281 194.582031 163.34375 195.25 C 163.222656 195.375 163.054688 195.425781 162.859375 195.425781" fill="inherit"/><path d="M 175.105469 195.898438 C 174.355469 195.898438 173.742188 195.417969 173.617188 194.773438 C 173.363281 194.855469 173.085938 194.898438 172.792969 194.902344 C 172.78125 194.902344 172.773438 194.902344 172.761719 194.902344 C 171.652344 194.902344 170.765625 194.289062 170.773438 193.527344 C 170.78125 192.757812 171.699219 192.121094 172.824219 192.109375 C 172.835938 192.109375 172.847656 192.109375 172.859375 192.109375 C 173.796875 192.109375 174.570312 192.550781 174.78125 193.148438 C 174.898438 193.121094 175.023438 193.101562 175.148438 193.097656 C 175.15625 193.097656 175.160156 193.097656 175.164062 193.097656 C 176.011719 193.097656 176.6875 193.714844 176.683594 194.484375 C 176.675781 195.257812 175.976562 195.894531 175.121094 195.898438 C 175.117188 195.898438 175.113281 195.898438 175.105469 195.898438" fill="inherit"/><path d="M 179.796875 195.296875 C 179.46875 195.296875 179.144531 195.089844 178.980469 194.730469 C 178.851562 194.4375 178.855469 194.109375 178.96875 193.839844 C 178.816406 193.71875 178.71875 193.53125 178.71875 193.308594 C 178.722656 192.9375 178.992188 192.636719 179.328125 192.632812 C 179.328125 192.632812 179.332031 192.632812 179.332031 192.632812 C 179.664062 192.632812 179.929688 192.929688 179.925781 193.300781 L 179.925781 193.304688 C 180.1875 193.367188 180.421875 193.554688 180.554688 193.84375 C 180.78125 194.34375 180.613281 194.949219 180.179688 195.195312 C 180.058594 195.265625 179.925781 195.296875 179.796875 195.296875" fill="inherit"/><path d="M 182.359375 196.859375 C 182.03125 196.859375 181.707031 196.648438 181.542969 196.289062 C 181.3125 195.785156 181.480469 195.179688 181.914062 194.9375 C 182.035156 194.867188 182.167969 194.835938 182.300781 194.835938 C 182.628906 194.835938 182.949219 195.046875 183.113281 195.402344 C 183.34375 195.90625 183.179688 196.515625 182.742188 196.757812 C 182.621094 196.828125 182.492188 196.859375 182.359375 196.859375" fill="inherit"/><path d="M 186.199219 204.070312 C 185.863281 204.070312 185.539062 203.703125 185.371094 203.078125 C 185.257812 202.644531 185.242188 202.171875 185.308594 201.75 C 184.980469 201.75 184.652344 201.542969 184.484375 201.179688 C 184.328125 200.835938 184.355469 200.453125 184.523438 200.160156 C 184.488281 200.164062 184.453125 200.167969 184.421875 200.167969 C 184.089844 200.167969 183.765625 199.960938 183.601562 199.597656 L 183.546875 199.441406 L 183.464844 199.503906 C 183.339844 199.570312 183.210938 199.605469 183.078125 199.605469 C 182.75 199.605469 182.421875 199.390625 182.257812 199.027344 C 182.027344 198.523438 182.195312 197.917969 182.632812 197.671875 C 182.753906 197.601562 182.882812 197.570312 183.015625 197.570312 C 183.34375 197.570312 183.667969 197.78125 183.832031 198.144531 L 183.890625 198.300781 L 183.972656 198.238281 C 184.09375 198.175781 184.222656 198.144531 184.351562 198.144531 C 184.683594 198.144531 185.011719 198.347656 185.179688 198.710938 C 185.332031 199.050781 185.304688 199.4375 185.136719 199.726562 C 185.171875 199.722656 185.207031 199.722656 185.238281 199.722656 C 185.570312 199.722656 185.898438 199.929688 186.0625 200.292969 C 186.105469 200.382812 186.128906 200.476562 186.144531 200.574219 C 186.472656 200.585938 186.789062 200.941406 186.953125 201.558594 C 187.1875 202.429688 187.019531 203.480469 186.582031 203.898438 C 186.460938 204.015625 186.328125 204.070312 186.199219 204.070312" fill="inherit"/><path d="M 184.875 197.246094 C 184.542969 197.246094 184.21875 197.035156 184.054688 196.675781 C 183.820312 196.171875 183.992188 195.566406 184.425781 195.320312 C 184.546875 195.253906 184.679688 195.21875 184.808594 195.21875 C 185.140625 195.21875 185.464844 195.429688 185.628906 195.792969 C 185.859375 196.296875 185.691406 196.902344 185.257812 197.144531 C 185.136719 197.214844 185.003906 197.246094 184.875 197.246094" fill="inherit"/><path d="M 180.847656 198.597656 C 180.636719 198.597656 180.367188 198.480469 180.078125 198.242188 C 179.476562 197.746094 179.019531 196.902344 179.0625 196.363281 C 179.085938 196.082031 179.238281 195.941406 179.46875 195.941406 C 179.679688 195.941406 179.945312 196.058594 180.234375 196.292969 C 180.839844 196.792969 181.296875 197.632812 181.253906 198.171875 C 181.230469 198.453125 181.074219 198.597656 180.847656 198.597656" fill="inherit"/><path d="M 183.449219 211.097656 C 182.914062 211.097656 182.652344 211.097656 182.117188 211.097656 C 182.121094 210.101562 182.121094 209.605469 182.121094 208.609375 C 182.566406 208.609375 182.792969 208.609375 183.238281 208.605469 C 183.242188 207.699219 183.242188 207.246094 183.242188 206.34375 C 183.691406 206.339844 183.917969 206.339844 184.367188 206.339844 C 184.367188 205.433594 184.367188 204.980469 184.371094 204.078125 C 184.902344 204.074219 185.171875 204.074219 185.703125 204.074219 C 185.699219 205.0625 185.699219 205.558594 185.699219 206.554688 C 185.25 206.554688 185.023438 206.554688 184.574219 206.554688 C 184.574219 207.460938 184.574219 207.914062 184.570312 208.820312 C 184.125 208.824219 183.898438 208.824219 183.449219 208.824219 C 183.449219 209.730469 183.449219 210.1875 183.449219 211.097656" fill="inherit"/><path d="M 188.753906 208.613281 C 188.625 208.613281 188.464844 206.550781 188.464844 206.550781 C 189.214844 206.820312 189.589844 206.953125 190.34375 207.222656 C 190.238281 207.773438 190.1875 208.050781 190.082031 208.601562 C 190.082031 208.601562 189.558594 208.527344 189.171875 208.527344 C 188.972656 208.527344 188.8125 208.546875 188.769531 208.601562 C 188.761719 208.609375 188.757812 208.613281 188.753906 208.613281" fill="inherit"/><path d="M 191.125 363.597656 C 190.570312 362.898438 190.160156 362.71875 189.796875 362.71875 C 189.605469 362.71875 189.429688 362.769531 189.25 362.820312 C 189.074219 362.871094 188.898438 362.921875 188.710938 362.921875 C 188.632812 362.921875 188.554688 362.914062 188.472656 362.894531 C 187.613281 362.675781 188.273438 360.902344 187.425781 360.902344 C 187.28125 360.902344 187.113281 360.914062 186.933594 360.914062 C 186.039062 360.914062 184.808594 360.648438 184.34375 357.527344 C 183.777344 353.777344 179.007812 349.964844 179.007812 349.964844 C 178.984375 349.449219 178.976562 349.191406 178.957031 348.675781 C 179.554688 348.410156 179.855469 348.273438 180.460938 348 C 180.578125 347.164062 180.640625 346.742188 180.765625 345.894531 C 180.113281 345.039062 179.789062 344.605469 179.132812 343.742188 C 179.113281 342.878906 179.105469 342.445312 179.089844 341.578125 C 177.609375 339.609375 176.859375 338.617188 175.351562 336.617188 C 174.835938 334.660156 174.570312 333.675781 174.050781 331.695312 C 172.300781 321.277344 170.644531 310.847656 169.09375 300.398438 C 172.234375 289.300781 159.433594 283.140625 155.832031 278.277344 C 155.253906 277.492188 150.050781 271.851562 148.925781 267.117188 C 147.800781 262.386719 144.097656 257.992188 142.484375 255.769531 C 140.871094 253.539062 141.910156 250.386719 142.554688 249.238281 C 143.199219 248.09375 143.484375 247.730469 142.242188 246.5625 C 140.996094 245.390625 140.726562 243.417969 141.292969 243.066406 C 141.859375 242.71875 146.703125 234.984375 147.894531 231.332031 C 149.09375 227.683594 146.644531 221.972656 146.644531 221.972656 C 146.726562 221.46875 146.769531 221.21875 146.851562 220.714844 C 146.644531 220.027344 146.535156 219.679688 146.332031 218.992188 C 145.714844 218.414062 145.179688 218.210938 144.738281 218.210938 C 143.722656 218.210938 143.191406 219.28125 143.191406 219.28125 C 143.191406 219.28125 143.15625 221.933594 142.074219 222.09375 C 142.039062 222.097656 142.007812 222.097656 141.96875 222.097656 C 140.828125 222.097656 138.234375 219.71875 136.980469 219.601562 C 135.6875 219.484375 131.300781 214.648438 131.300781 214.648438 C 131.300781 214.648438 131.539062 212.648438 130.773438 212.335938 C 130.015625 212.023438 128.832031 209.097656 128.832031 209.097656 C 128.6875 208.492188 128.617188 208.1875 128.480469 207.585938 C 128.179688 207.625 127.894531 207.644531 127.609375 207.644531 C 124.773438 207.644531 122.53125 205.648438 117.640625 201.421875 C 116.738281 200.703125 116.152344 200.453125 115.65625 200.453125 C 115.085938 200.453125 114.628906 200.78125 113.941406 201.109375 C 113.253906 201.4375 112.332031 201.765625 110.832031 201.765625 C 110.800781 201.765625 110.769531 201.761719 110.738281 201.761719 C 106.328125 201.726562 96.445312 192.582031 96.445312 192.582031 C 96.445312 192.582031 97.109375 191.0625 97.347656 187.921875 C 97.589844 184.777344 92.90625 179.8125 92.90625 179.8125 C 93.035156 178.988281 93.097656 178.578125 93.226562 177.757812 C 92.210938 175.90625 91.71875 174.996094 90.753906 173.203125 C 90.738281 171.253906 90.738281 170.285156 90.757812 168.359375 C 90.25 167.632812 89.734375 167.347656 89.277344 167.347656 C 88.257812 167.347656 87.515625 168.753906 87.726562 169.800781 C 88.457031 172.386719 88.84375 173.703125 89.664062 176.375 C 89.660156 177.542969 89.660156 178.125 89.667969 179.300781 C 89.824219 180.316406 89.90625 180.824219 90.070312 181.847656 C 90.488281 183.214844 90.703125 183.902344 91.140625 185.285156 C 91.015625 185.304688 90.894531 185.316406 90.773438 185.316406 C 88.246094 185.316406 87.394531 180.867188 87.871094 180.308594 C 88.367188 179.722656 87.65625 179.183594 86.09375 178.226562 C 84.535156 177.269531 85.941406 175.484375 86.351562 174.386719 C 86.761719 173.289062 85.082031 170.554688 85.082031 170.554688 C 85.082031 170.554688 85.707031 167.496094 86.144531 165.789062 C 86.582031 164.082031 82.820312 162.746094 82.820312 162.746094 C 83.105469 160.058594 83.269531 158.726562 83.628906 156.089844 C 81.601562 154.03125 84.175781 150.179688 84.6875 150.0625 C 85.199219 149.949219 86.277344 149.648438 86.808594 147.710938 C 87.34375 145.769531 95.71875 135.792969 95.71875 135.792969 C 95.71875 135.792969 98.476562 135.402344 99.109375 134.621094 C 99.742188 133.84375 104.257812 129.921875 101.175781 128.398438 C 98.09375 126.871094 100.71875 124.707031 100.71875 124.707031 C 99.65625 124.539062 101.683594 121.371094 102.457031 120.453125 C 103.230469 119.539062 103.527344 118.054688 104.269531 115.535156 C 104.683594 114.113281 102.03125 113.449219 99.328125 113.449219 C 97.242188 113.449219 95.125 113.84375 94.351562 114.589844 C 92.585938 116.300781 89.550781 118.15625 87.484375 118.78125 C 85.417969 119.410156 69.277344 132.496094 69.277344 132.496094 C 68.34375 132.8125 67.878906 132.980469 66.96875 133.3125 L 66.960938 133.316406 L 66.976562 133.304688 C 67.304688 133.050781 77.84375 124.90625 77.386719 124.820312 C 77.371094 124.816406 77.355469 124.816406 77.34375 124.816406 C 76.847656 124.816406 75.699219 126.1875 74.898438 126.539062 C 74.726562 126.617188 74.578125 126.648438 74.460938 126.648438 C 74.011719 126.648438 73.96875 126.171875 74.460938 125.785156 C 75.085938 125.300781 77.402344 123.746094 77.703125 122.566406 C 78.007812 121.390625 79.800781 119.96875 80.539062 119.234375 C 81.277344 118.503906 86.460938 115.542969 86.460938 115.542969 C 87.824219 114.296875 88.507812 113.671875 89.867188 112.417969 C 89.867188 112.417969 89.914062 112.242188 89.757812 112.242188 C 89.644531 112.242188 89.425781 112.335938 89 112.660156 C 88.265625 113.21875 84.644531 115.878906 84.039062 115.878906 C 83.816406 115.878906 84.011719 115.507812 84.929688 114.519531 C 88.316406 110.882812 92.164062 109.675781 92.164062 109.675781 C 93.011719 108.925781 93.433594 108.550781 94.28125 107.796875 C 94.28125 107.796875 94.128906 107.847656 93.976562 107.847656 C 93.726562 107.847656 93.484375 107.695312 94.019531 106.875 C 94.871094 105.566406 96.707031 104.347656 96.707031 104.347656 C 97.792969 103.683594 98.34375 103.351562 99.445312 102.699219 C 107.023438 96.402344 116.347656 91.710938 126.238281 90.757812 C 126.238281 90.757812 129.304688 90.164062 131.246094 88.746094 C 133.027344 87.453125 138.539062 84.242188 139.578125 84.242188 C 139.671875 84.242188 139.730469 84.269531 139.742188 84.328125 C 139.789062 84.523438 140.074219 84.59375 140.453125 84.59375 C 141.398438 84.59375 142.9375 84.160156 142.9375 84.160156 C 144.390625 83.742188 145.121094 83.535156 146.589844 83.140625 C 146.429688 83.574219 147.417969 83.699219 148.605469 83.699219 C 150.210938 83.699219 152.179688 83.472656 152.179688 83.472656 C 151.644531 84.191406 151.382812 84.546875 150.847656 85.269531 C 152.351562 84.859375 153.105469 84.664062 154.621094 84.28125 C 155.367188 84.222656 155.738281 84.195312 156.488281 84.140625 C 156.074219 84.945312 156.570312 86.253906 157.15625 86.25 C 157.300781 86.25 157.449219 86.171875 157.59375 85.988281 C 158.261719 85.121094 161.355469 81.59375 163.035156 81.59375 C 163.171875 81.59375 163.304688 81.617188 163.421875 81.667969 C 164 81.925781 164.917969 82.007812 165.835938 82.007812 C 167.339844 82.007812 168.839844 81.789062 168.839844 81.789062 C 169.734375 81.671875 170.1875 81.617188 171.085938 81.507812 C 171.199219 82.691406 171.753906 82.960938 172.230469 82.960938 C 172.628906 82.960938 172.96875 82.777344 172.96875 82.777344 C 173.984375 81.859375 174.492188 81.402344 175.5 80.492188 C 176.226562 80.308594 176.59375 80.214844 177.324219 80.035156 C 178.929688 77.796875 177.53125 76.757812 177.53125 76.757812 C 179.929688 75.601562 181.121094 75.039062 183.5 73.941406 C 183.074219 75.207031 182.863281 75.84375 182.4375 77.121094 C 183.820312 77.410156 184.519531 77.5625 185.925781 77.878906 C 185.925781 77.878906 186.550781 78.003906 185.445312 78.839844 C 184.34375 79.675781 184.597656 80.585938 184.863281 81.152344 C 184.878906 81.183594 184.90625 81.195312 184.949219 81.195312 C 185.648438 81.195312 189.976562 76.855469 189.976562 76.855469 C 189.976562 76.855469 192.457031 76.699219 193.179688 76.699219 C 193.269531 76.699219 193.332031 76.703125 193.359375 76.707031 C 193.367188 76.707031 193.378906 76.710938 193.394531 76.710938 C 193.441406 76.710938 193.515625 76.699219 193.601562 76.691406 C 193.691406 76.679688 193.792969 76.671875 193.898438 76.671875 C 194.503906 76.671875 195.183594 76.984375 193.644531 79.441406 C 191.65625 82.613281 190.015625 82.726562 189.789062 82.726562 C 189.769531 82.726562 189.761719 82.726562 189.761719 82.726562 L 183.992188 83.4375 C 183.992188 83.4375 180.257812 83.683594 179.4375 84.167969 C 178.617188 84.652344 180.460938 86.601562 180.460938 86.601562 C 178.695312 87.292969 177.8125 87.648438 176.046875 88.363281 C 176.046875 88.363281 173.203125 88.664062 172.9375 88.691406 C 172.816406 89.503906 172.753906 89.90625 172.632812 90.71875 C 164.777344 92.636719 160.992188 100.050781 160.992188 100.050781 C 161.386719 100.160156 161.578125 100.21875 161.972656 100.332031 C 162.511719 101.5625 162.785156 102.183594 163.347656 103.4375 C 164.136719 103.363281 164.53125 103.332031 165.328125 103.265625 C 166.660156 104.101562 167.335938 104.523438 168.699219 105.390625 C 174.234375 105.570312 173.101562 106.949219 173.101562 106.949219 C 170.449219 112.476562 171.589844 113.527344 172.839844 113.527344 C 173.609375 113.527344 174.425781 113.128906 174.425781 113.128906 C 175.195312 111.941406 176 108.160156 178.425781 106.921875 C 186.089844 103.550781 185.183594 99.46875 185.183594 99.46875 C 185.257812 98.40625 185.292969 97.878906 185.367188 96.824219 C 185.476562 96.914062 185.585938 96.957031 185.691406 96.957031 C 186.371094 96.957031 186.949219 95.214844 187.769531 93.472656 C 188.59375 91.730469 189.65625 89.988281 191.316406 89.988281 C 191.339844 89.988281 191.363281 89.988281 191.390625 89.988281 C 192.21875 90.011719 203.492188 90.03125 200.21875 94.832031 C 198.09375 97.945312 199.082031 98.492188 200.039062 98.492188 C 200.554688 98.492188 201.0625 98.332031 201.0625 98.332031 C 203.871094 96.566406 205.269531 95.703125 207.996094 94.023438 C 207.996094 94.023438 209.140625 100.628906 208.230469 101.480469 C 207.320312 102.335938 210.40625 105.519531 210.40625 105.519531 C 210.34375 106.097656 210.3125 106.382812 210.242188 106.960938 C 211.671875 106.992188 212.382812 107.011719 213.800781 107.054688 C 215.726562 115.273438 198.726562 115.980469 193.027344 116.710938 C 192.777344 117.257812 192.65625 117.527344 192.402344 118.074219 C 194.101562 118.164062 194.953125 118.214844 196.65625 118.320312 C 191.757812 124.503906 196.804688 124.925781 198.277344 124.925781 C 198.511719 124.925781 198.652344 124.914062 198.652344 124.914062 C 199.632812 124.90625 200.121094 124.90625 201.101562 124.902344 C 201.050781 125.371094 201.027344 125.609375 200.976562 126.078125 C 200.960938 126.078125 200.945312 126.078125 200.929688 126.078125 C 199.484375 126.078125 190.730469 131.464844 190.730469 131.464844 C 190.730469 131.464844 189.765625 130.101562 189.402344 130.101562 C 189.386719 130.101562 189.367188 130.105469 189.355469 130.113281 C 189.355469 130.113281 196.367188 126.957031 193.691406 126.546875 C 181.851562 127.996094 180.480469 131.980469 180.480469 131.980469 C 180.21875 133.09375 180.089844 133.652344 179.824219 134.769531 C 175.128906 135.15625 173.652344 139.722656 170.894531 140.324219 C 168.136719 140.929688 166.1875 144.542969 166.1875 144.542969 C 165.578125 144.578125 165.273438 144.59375 164.671875 144.628906 C 164.75 145.351562 164.335938 153.21875 159.671875 154.808594 C 151.550781 157.253906 149.648438 163.1875 149.648438 163.1875 C 149.507812 166.457031 149.445312 168.101562 149.339844 171.410156 C 149.53125 171.507812 149.628906 171.558594 149.820312 171.65625 C 149.945312 172.742188 149.160156 177.105469 147.527344 177.105469 C 147.4375 177.105469 147.34375 177.089844 147.246094 177.0625 C 143.40625 176.269531 145.566406 167.699219 145.566406 167.699219 C 144.589844 166.921875 144.101562 166.535156 143.136719 165.769531 C 142.523438 165.984375 141.992188 166.070312 141.515625 166.070312 C 139.6875 166.070312 138.65625 164.796875 136.917969 164.65625 C 136.859375 164.652344 136.804688 164.648438 136.753906 164.648438 C 134.738281 164.648438 134.957031 167.765625 132.355469 168.582031 C 132.019531 168.6875 131.734375 168.730469 131.480469 168.730469 C 130.6875 168.730469 130.226562 168.285156 129.644531 167.839844 C 129.066406 167.394531 128.371094 166.949219 127.113281 166.949219 C 126.828125 166.949219 126.515625 166.972656 126.171875 167.023438 C 122.261719 167.59375 117.09375 172.621094 117.09375 172.621094 C 116.328125 174.574219 115.949219 175.554688 115.203125 177.507812 C 108.015625 189.890625 116.292969 194.183594 116.292969 194.183594 C 117.367188 194.597656 118.335938 194.777344 119.207031 194.777344 C 124.371094 194.777344 126.09375 188.523438 126.09375 188.523438 C 129.085938 186.953125 130.785156 186.4375 131.734375 186.4375 C 133.527344 186.4375 132.621094 188.28125 132.621094 188.28125 C 130.90625 193.234375 130.066406 195.71875 128.445312 200.679688 C 129.792969 200.480469 130.941406 200.390625 131.914062 200.390625 C 138.460938 200.390625 137.253906 204.335938 137.253906 204.335938 C 136.871094 207.832031 136.691406 209.59375 136.355469 213.101562 C 135.734375 215.289062 139.390625 218.207031 140.679688 218.207031 C 140.785156 218.207031 140.878906 218.1875 140.949219 218.144531 C 141.871094 217.59375 143.289062 216.691406 145.535156 216.636719 C 145.566406 216.632812 145.59375 216.632812 145.625 216.632812 C 147.832031 216.632812 149.800781 218.703125 149.800781 218.703125 C 152.109375 217.453125 154.636719 212.519531 154.636719 212.519531 C 154.636719 212.519531 155.285156 212.710938 156.023438 212.710938 C 156.753906 212.710938 157.566406 212.523438 157.910156 211.777344 C 158.609375 210.277344 160.199219 209.203125 160.199219 209.203125 C 161.0625 209.199219 161.496094 209.199219 162.363281 209.195312 C 162.339844 209.710938 162.324219 209.96875 162.300781 210.484375 C 161.738281 210.945312 161.457031 211.175781 160.894531 211.632812 C 160.613281 213.4375 160.476562 214.339844 160.203125 216.136719 C 160.742188 216.90625 161.011719 217.292969 161.550781 218.066406 C 161.5625 218.074219 161.578125 218.074219 161.59375 218.074219 C 161.972656 218.074219 161.984375 215.589844 162.636719 212.730469 C 163.058594 210.890625 164.734375 210.117188 165.738281 210.117188 C 166.347656 210.117188 166.710938 210.40625 166.386719 210.914062 C 165.558594 212.214844 173.933594 215.15625 176.007812 215.15625 C 176.070312 215.15625 176.128906 215.152344 176.179688 215.144531 C 176.238281 215.140625 176.304688 215.136719 176.375 215.136719 C 177.070312 215.136719 178.386719 215.425781 179.851562 215.90625 C 179.851562 215.90625 180.710938 213.949219 181.386719 213.464844 C 181.699219 213.238281 182.226562 213.195312 182.71875 213.195312 C 182.890625 213.195312 183.058594 213.199219 183.210938 213.203125 C 183.359375 213.210938 183.5 213.214844 183.613281 213.214844 C 183.757812 213.214844 183.863281 213.207031 183.902344 213.175781 C 184.070312 213.054688 184.222656 211.78125 184.980469 211.78125 C 185.117188 211.78125 185.273438 211.824219 185.453125 211.917969 C 186.628906 212.546875 185.226562 214.289062 184.359375 214.773438 C 183.796875 215.085938 183.3125 216.300781 183.164062 217.265625 C 184.933594 218.160156 186.398438 219.25 186.683594 220.367188 C 187.359375 223.058594 191.171875 226.464844 198.757812 226.464844 C 199.050781 226.464844 199.351562 226.460938 199.65625 226.449219 C 207.851562 232.59375 203.890625 234.191406 205.855469 235.710938 C 207.820312 237.226562 206.773438 238.746094 206.773438 238.746094 C 205.980469 240.167969 202.039062 244.984375 202.128906 245.832031 C 202.148438 246.003906 202.230469 246.074219 202.371094 246.074219 C 202.90625 246.074219 204.238281 245.039062 205.621094 244.886719 C 205.707031 244.878906 205.792969 244.871094 205.875 244.871094 C 207.488281 244.871094 208.660156 246.566406 208.660156 246.566406 C 210.953125 245.203125 212.101562 244.519531 214.390625 243.148438 C 221.722656 244.789062 218.238281 248.832031 218.488281 249.671875 C 218.523438 249.792969 218.601562 249.84375 218.710938 249.84375 C 219.347656 249.84375 220.996094 248.050781 220.996094 248.050781 C 220.996094 248.050781 220.394531 247.441406 222.078125 247.441406 C 223.34375 247.441406 225.894531 247.785156 230.964844 248.988281 C 242.773438 251.792969 239.984375 259.019531 239.984375 259.019531 C 238.769531 262.609375 230.835938 266.9375 231.101562 274.894531 C 232.601562 287.007812 225.023438 297.949219 225.023438 297.949219 C 225.023438 297.949219 222.46875 297.976562 221.664062 298.09375 C 220.859375 298.214844 213.609375 301.90625 213.160156 304.152344 C 214.730469 312.457031 211.222656 313.152344 211.222656 313.152344 C 211.191406 314.503906 211.179688 315.179688 211.148438 316.523438 C 208.484375 320.078125 207.175781 321.832031 204.609375 325.273438 C 204.546875 325.304688 204.46875 325.320312 204.367188 325.320312 C 203.851562 325.320312 202.847656 324.933594 201.789062 324.546875 C 200.734375 324.160156 199.621094 323.773438 198.875 323.773438 C 198.554688 323.773438 198.300781 323.84375 198.152344 324.019531 C 205.019531 333.855469 198.277344 334.460938 198.277344 334.460938 C 196.730469 334.4375 195.960938 334.417969 194.421875 334.375 C 194.679688 335.347656 194.808594 335.835938 195.066406 336.800781 C 194.535156 338.03125 194.273438 338.644531 193.761719 339.863281 C 192.234375 339.367188 191.472656 339.113281 189.941406 338.597656 C 191.246094 339.957031 191.894531 340.632812 193.175781 341.972656 C 193.1875 342.414062 193.195312 342.632812 193.210938 343.074219 C 192.742188 343.683594 192.511719 343.984375 192.046875 344.589844 C 192.21875 345.285156 192.300781 345.628906 192.46875 346.320312 C 191.921875 347.601562 191.648438 348.238281 191.117188 349.5 C 192.355469 351.007812 192.96875 351.753906 194.175781 353.230469 C 193.308594 355.359375 192.886719 356.40625 192.066406 358.480469 C 192.601562 359.675781 192.871094 360.269531 193.394531 361.449219 C 192.476562 362.320312 192.019531 362.746094 191.125 363.597656 M 157.617188 125.8125 C 157.691406 125.8125 157.746094 125.816406 157.78125 125.835938 C 158.074219 125.972656 159.210938 126.953125 156.015625 127.851562 C 152.820312 128.753906 147.90625 136.824219 147.90625 136.824219 C 147.90625 136.824219 148.242188 138.300781 148.667969 138.300781 C 148.785156 138.300781 148.910156 138.1875 149.039062 137.898438 C 149.628906 136.570312 156.789062 128.28125 157.800781 128.1875 C 157.84375 128.183594 157.886719 128.183594 157.929688 128.183594 C 158.886719 128.183594 159.710938 129.125 159.320312 129.320312 C 158.917969 129.523438 157.984375 131.386719 158.351562 132.636719 C 158.472656 133.050781 158.699219 133.210938 158.96875 133.210938 C 159.507812 133.210938 160.203125 132.566406 160.503906 132.027344 C 160.945312 131.238281 161.859375 130.167969 162.335938 130.167969 C 162.34375 130.167969 162.355469 130.171875 162.363281 130.171875 C 162.398438 130.175781 162.4375 130.175781 162.484375 130.175781 C 163.117188 130.175781 164.953125 129.835938 164.859375 128.097656 C 164.804688 127.019531 164.003906 126.65625 163.132812 126.65625 C 162.488281 126.65625 161.8125 126.855469 161.363281 127.109375 C 161.175781 127.214844 160.988281 127.257812 160.804688 127.257812 C 159.949219 127.257812 159.183594 126.269531 159.164062 125.789062 C 159.140625 125.199219 159.753906 122.445312 156.753906 121.523438 C 156.519531 121.449219 156.257812 121.414062 155.984375 121.414062 C 154.390625 121.414062 152.207031 122.527344 150.460938 123.636719 C 148.714844 124.746094 147.402344 125.855469 147.550781 125.855469 C 147.554688 125.855469 147.5625 125.855469 147.570312 125.851562 C 147.585938 125.847656 147.605469 125.84375 147.625 125.84375 C 147.863281 125.84375 148.253906 126.257812 148.628906 126.671875 C 149.003906 127.089844 149.371094 127.503906 149.578125 127.503906 C 149.660156 127.503906 149.71875 127.433594 149.734375 127.265625 C 149.835938 126.332031 152.574219 125.042969 153.371094 125.042969 C 153.503906 125.042969 153.582031 125.078125 153.585938 125.160156 C 153.601562 125.71875 155.605469 126.21875 155.605469 126.21875 C 155.605469 126.21875 157.070312 125.8125 157.617188 125.8125 M 161.792969 134.160156 C 161.570312 134.160156 161.257812 134.492188 160.910156 134.910156 C 160.308594 135.648438 158.640625 135.859375 157.363281 136.136719 C 156.089844 136.410156 157.203125 137.179688 157.96875 137.488281 C 157.96875 137.488281 158.050781 137.492188 158.183594 137.492188 C 158.621094 137.492188 159.613281 137.472656 160.105469 137.324219 C 160.753906 137.128906 162.183594 135.9375 162.101562 134.824219 C 162.070312 134.34375 161.957031 134.160156 161.792969 134.160156 M 168.980469 130.054688 C 168.539062 130.054688 168.050781 130.761719 167.324219 131.089844 C 166.433594 131.496094 165.769531 131.972656 165.730469 132.492188 C 165.730469 132.492188 168.910156 132.367188 169.171875 132.007812 C 169.429688 131.644531 169.804688 130.667969 169.28125 130.1875 C 169.183594 130.09375 169.082031 130.054688 168.980469 130.054688" fill="inherit"/><path d="M 288.085938 122.707031 C 286.40625 122.046875 286.242188 119.847656 286.519531 119.59375 C 286.804688 119.339844 287.0625 118.234375 286.640625 118.074219 C 286.214844 117.914062 285.78125 116.535156 285.78125 116.535156 C 285.78125 116.535156 286.0625 116.039062 286.449219 116.039062 C 286.574219 116.039062 286.707031 116.089844 286.847656 116.230469 C 286.949219 116.328125 287.054688 116.371094 287.164062 116.371094 C 287.683594 116.371094 288.25 115.457031 288.25 115.457031 C 288.25 115.457031 290.894531 116.132812 291.359375 116.3125 C 291.824219 116.496094 292.691406 118.105469 292.421875 118.136719 C 292.148438 118.160156 291.601562 119.246094 291.601562 119.246094 C 291.601562 119.246094 293.082031 121.816406 292.160156 121.816406 C 292.105469 121.816406 292.046875 121.808594 291.980469 121.792969 C 291.828125 121.753906 291.664062 121.738281 291.484375 121.738281 C 290.128906 121.738281 288.085938 122.707031 288.085938 122.707031" fill="inherit"/><path d="M 302.964844 127.34375 C 302.332031 127.34375 299.953125 126.421875 299.953125 126.421875 C 299.347656 126.414062 298.84375 126.414062 298.367188 126.414062 C 297.4375 126.414062 296.625 126.421875 295.40625 126.441406 C 294.789062 126.058594 294.480469 125.863281 293.863281 125.480469 C 293.863281 125.480469 296.902344 125.199219 297.015625 124.921875 C 297.128906 124.640625 294.90625 124.109375 294.8125 123.566406 C 294.71875 123.023438 293.789062 123.09375 293.957031 122.460938 C 294.121094 121.828125 294.132812 120.796875 295.246094 120.648438 C 296.359375 120.5 296.308594 119.539062 295.28125 118.042969 C 294.285156 117.613281 293.785156 117.398438 292.785156 116.972656 C 292.839844 116.835938 292.1875 114.894531 292.1875 114.894531 C 291.929688 114.820312 291.800781 114.78125 291.542969 114.703125 C 291.503906 114.132812 291.484375 113.847656 291.441406 113.28125 C 291.441406 113.28125 291.417969 112.035156 292.238281 112.035156 C 292.441406 112.035156 292.695312 112.109375 293.011719 112.296875 C 294.621094 113.238281 293.960938 113.515625 293.960938 113.515625 C 294.523438 113.75 294.808594 113.871094 295.371094 114.105469 C 295.371094 114.105469 294.945312 115.722656 294.898438 115.855469 C 294.847656 115.988281 296.15625 116.628906 296.15625 116.628906 C 296.15625 116.628906 300.5625 121.527344 301.171875 123.589844 C 301.867188 123.613281 302.214844 123.628906 302.902344 123.660156 C 302.902344 123.660156 303.730469 123.703125 303.378906 125.222656 C 303.257812 125.738281 303.078125 125.886719 302.894531 125.886719 C 302.773438 125.886719 302.644531 125.816406 302.535156 125.75 C 302.425781 125.683594 302.332031 125.613281 302.269531 125.613281 C 302.214844 125.613281 302.183594 125.667969 302.191406 125.824219 C 302.226562 126.585938 303.207031 126.960938 303.117188 127.285156 C 303.105469 127.324219 303.054688 127.34375 302.964844 127.34375" fill="inherit"/><path d="M 326.394531 125.285156 C 325.871094 125.03125 325.609375 124.90625 325.082031 124.652344 C 324.917969 124.335938 324.835938 124.175781 324.671875 123.855469 C 324.617188 123.59375 324.589844 123.464844 324.535156 123.203125 C 324.796875 123.332031 324.929688 123.394531 325.1875 123.527344 C 325.535156 123.976562 325.710938 124.199219 326.058594 124.648438 C 326.191406 124.902344 326.261719 125.03125 326.394531 125.285156" fill="inherit"/><path d="M 349.4375 167.691406 C 349.378906 167.691406 349.3125 167.683594 349.242188 167.667969 C 348.019531 167.390625 347.40625 167.25 346.167969 166.972656 C 345.644531 166.859375 345.105469 166.316406 344.960938 165.769531 C 344.832031 165.289062 345.039062 164.964844 345.433594 164.964844 C 345.496094 164.964844 345.5625 164.972656 345.632812 164.988281 C 346.863281 165.277344 347.476562 165.421875 348.695312 165.714844 C 349.207031 165.839844 349.746094 166.375 349.898438 166.910156 C 350.03125 167.375 349.828125 167.691406 349.4375 167.691406" fill="inherit"/><path d="M 331.246094 159.910156 C 331.246094 159.910156 326.527344 158.585938 326.476562 157.121094 C 326.441406 156.222656 326.726562 156.046875 326.953125 156.046875 C 327.097656 156.046875 327.21875 156.117188 327.21875 156.117188 C 327.472656 156.171875 331.210938 157.460938 331.210938 157.460938 C 331.230469 158.433594 331.238281 158.925781 331.246094 159.910156" fill="inherit"/><path d="M 330.765625 162.1875 C 330.296875 162.09375 330.0625 162.050781 329.59375 161.957031 C 329.46875 161.386719 329.402344 161.101562 329.273438 160.53125 C 330.039062 160.914062 330.421875 161.105469 331.1875 161.488281 C 331.019531 161.765625 330.933594 161.90625 330.765625 162.1875" fill="inherit"/><path d="M 320.40625 148.605469 C 320.101562 148.605469 319.144531 148.289062 319.144531 148.289062 C 319.144531 148.289062 317.886719 146.160156 318.203125 145.933594 C 318.359375 145.820312 318.726562 145.789062 319.066406 145.789062 C 319.414062 145.789062 319.730469 145.820312 319.730469 145.820312 C 319.730469 145.820312 320.6875 148.550781 320.460938 148.597656 C 320.445312 148.601562 320.429688 148.605469 320.40625 148.605469" fill="inherit"/><path d="M 320.894531 153.640625 C 320.507812 153.558594 320.3125 153.519531 319.925781 153.4375 C 319.925781 153.4375 316.515625 149.113281 319.0625 148.84375 C 319.757812 149.09375 320.101562 149.21875 320.789062 149.472656 C 321.183594 151.015625 321.371094 151.789062 321.738281 153.347656 C 321.402344 153.460938 321.230469 153.523438 320.894531 153.640625" fill="inherit"/><path d="M 312.925781 150.292969 C 312.632812 150.234375 312.484375 150.203125 312.191406 150.144531 C 312.085938 149.644531 312.027344 149.390625 311.921875 148.894531 C 312.304688 149.101562 312.496094 149.207031 312.882812 149.414062 C 312.898438 149.765625 312.90625 149.941406 312.925781 150.292969" fill="inherit"/><path d="M 309.382812 151.785156 C 308.957031 151.710938 308.742188 151.671875 308.316406 151.59375 C 308.277344 151.113281 308.253906 150.875 308.210938 150.398438 C 308.699219 150.492188 308.941406 150.535156 309.433594 150.628906 C 309.363281 150.292969 309.332031 150.128906 309.265625 149.792969 C 309.382812 149.730469 309.441406 149.695312 309.558594 149.628906 C 309.503906 149.398438 309.472656 149.28125 309.414062 149.050781 C 309.507812 149.121094 311.125 149.386719 311.125 149.386719 C 311.246094 149.96875 311.308594 150.261719 311.429688 150.84375 C 311.28125 150.816406 311.210938 150.800781 311.0625 150.773438 C 311.085938 150.941406 311.097656 151.027344 311.121094 151.199219 C 310.445312 151.070312 310.109375 151.003906 309.433594 150.878906 C 309.410156 151.238281 309.402344 151.421875 309.382812 151.785156" fill="inherit"/><path d="M 263.195312 197.925781 C 263.191406 197.925781 263.191406 197.925781 263.1875 197.925781 C 262.527344 197.914062 262.195312 197.90625 261.535156 197.894531 C 261.191406 197.890625 260.910156 197.574219 260.902344 197.191406 C 260.898438 196.8125 261.160156 196.507812 261.496094 196.507812 C 261.503906 196.507812 261.503906 196.507812 261.507812 196.507812 C 262.171875 196.519531 262.5 196.527344 263.160156 196.539062 C 263.503906 196.546875 263.785156 196.863281 263.792969 197.242188 C 263.800781 197.621094 263.53125 197.925781 263.195312 197.925781" fill="inherit"/><path d="M 267.296875 199.5625 C 267.292969 199.5625 267.289062 199.5625 267.285156 199.5625 C 266.972656 199.558594 266.707031 199.265625 266.699219 198.910156 C 266.699219 198.800781 266.695312 198.742188 266.695312 198.632812 C 266.6875 198.28125 266.9375 198 267.246094 198 C 267.25 198 267.253906 198 267.257812 198 C 267.574219 198.007812 267.835938 198.300781 267.84375 198.652344 C 267.847656 198.765625 267.847656 198.820312 267.847656 198.929688 C 267.855469 199.28125 267.609375 199.5625 267.296875 199.5625" fill="inherit"/><path d="M 266.269531 202.5 C 266.269531 202.5 266.265625 202.5 266.265625 202.5 C 265.871094 202.492188 265.671875 202.488281 265.277344 202.484375 C 265.003906 202.480469 264.777344 202.230469 264.773438 201.925781 C 264.769531 201.621094 264.984375 201.375 265.253906 201.375 C 265.257812 201.375 265.261719 201.375 265.261719 201.375 C 265.65625 201.382812 265.855469 201.382812 266.25 201.390625 C 266.523438 201.394531 266.746094 201.644531 266.75 201.949219 C 266.753906 202.253906 266.539062 202.5 266.269531 202.5" fill="inherit"/><path d="M 264.722656 199.519531 C 264.722656 199.519531 264.71875 199.519531 264.71875 199.519531 L 264.597656 199.519531 C 264.402344 199.515625 264.242188 199.335938 264.238281 199.121094 C 264.234375 198.90625 264.386719 198.734375 264.574219 198.734375 C 264.578125 198.734375 264.578125 198.734375 264.582031 198.734375 L 264.703125 198.734375 C 264.898438 198.738281 265.058594 198.917969 265.0625 199.132812 C 265.066406 199.351562 264.914062 199.519531 264.722656 199.519531" fill="inherit"/><path d="M 267.957031 202.519531 C 267.953125 202.519531 267.949219 202.519531 267.945312 202.519531 C 267.78125 202.519531 267.703125 202.515625 267.539062 202.515625 C 267.105469 202.507812 266.753906 202.113281 266.746094 201.628906 C 266.738281 201.148438 267.078125 200.761719 267.5 200.761719 C 267.503906 200.761719 267.507812 200.761719 267.511719 200.761719 C 267.675781 200.765625 267.757812 200.765625 267.921875 200.769531 C 268.351562 200.777344 268.707031 201.171875 268.714844 201.65625 C 268.722656 202.136719 268.382812 202.519531 267.957031 202.519531" fill="inherit"/><path d="M 351.382812 166.035156 C 351.347656 166.035156 351.308594 166.027344 351.269531 166.019531 C 351.039062 165.960938 350.925781 165.933594 350.695312 165.878906 C 350.410156 165.804688 350.105469 165.503906 350.019531 165.207031 C 349.941406 164.953125 350.042969 164.785156 350.25 164.785156 C 350.285156 164.785156 350.324219 164.789062 350.367188 164.800781 C 350.597656 164.859375 350.710938 164.886719 350.9375 164.945312 L 351.035156 164.980469 C 349.652344 163.945312 348.265625 162.335938 347.964844 160.476562 C 347.269531 159.910156 346.917969 159.628906 346.21875 159.054688 C 346.199219 158.640625 346.1875 158.433594 346.164062 158.019531 C 347.035156 158.253906 347.472656 158.371094 348.332031 158.609375 C 348.332031 158.609375 349.074219 158.558594 349.40625 158.25 C 350.4375 161.066406 350.933594 162.53125 351.808594 165.351562 L 351.828125 165.410156 L 351.867188 165.535156 L 351.863281 165.535156 C 351.703125 165.4375 351.539062 165.335938 351.371094 165.222656 C 351.484375 165.339844 351.570312 165.472656 351.613281 165.609375 C 351.691406 165.863281 351.589844 166.035156 351.382812 166.035156" fill="inherit"/><path d="M 324.195312 299.433594 C 323.089844 299.433594 322.988281 297.714844 325.089844 295.480469 C 327.964844 292.417969 323.230469 289.816406 324.394531 287.570312 C 325.554688 285.320312 323.921875 273.429688 325.035156 271.492188 C 326.152344 269.550781 325.144531 266.304688 330.78125 258.867188 C 329.519531 255.710938 330.105469 249.382812 329.796875 248.699219 C 329.796875 248.699219 330.902344 248.21875 331.148438 246.902344 C 331.246094 246.394531 331.144531 246.203125 330.960938 246.203125 C 330.667969 246.203125 330.164062 246.675781 329.878906 247.125 C 329.8125 247.226562 329.738281 247.273438 329.660156 247.273438 C 329.175781 247.273438 328.527344 245.570312 328.828125 244.996094 C 329.179688 244.332031 325.285156 241.1875 325.570312 239.992188 C 325.859375 238.800781 326.347656 235.355469 327.15625 234.058594 C 327.964844 232.761719 328.339844 229.90625 327.839844 229.28125 C 327.8125 229.25 327.761719 229.234375 327.695312 229.234375 C 327.378906 229.234375 326.726562 229.546875 326.726562 229.546875 C 326.726562 229.546875 326.132812 230.109375 325.503906 230.109375 C 325.382812 230.109375 325.257812 230.089844 325.136719 230.035156 C 324.398438 229.722656 326.089844 227.859375 326.089844 227.859375 C 325.152344 227.183594 324.199219 226.535156 324.199219 226.535156 C 322.691406 226.945312 321.933594 227.148438 320.410156 227.5625 C 320.410156 227.5625 321.300781 222.9375 317.242188 222.9375 C 316.898438 222.9375 316.523438 222.96875 316.105469 223.039062 C 311.023438 223.910156 307.691406 227.214844 305.910156 227.214844 C 305.820312 227.214844 305.730469 227.207031 305.644531 227.1875 C 304.859375 227.011719 303.40625 226.726562 301.804688 226.726562 C 299.941406 226.726562 297.871094 227.109375 296.40625 228.492188 C 296.109375 228.777344 295.742188 228.902344 295.324219 228.902344 C 291.929688 228.902344 285.203125 220.5625 285.007812 219.425781 C 284.785156 218.148438 284.316406 216.597656 284.316406 216.597656 C 284.316406 216.597656 280.550781 211.167969 279.945312 211.03125 C 279.34375 210.890625 276.613281 209.574219 277.511719 207.597656 C 278.402344 205.617188 277.703125 203.425781 277.269531 202.535156 C 276.828125 201.644531 278.476562 199.089844 279.289062 197.894531 C 280.105469 196.695312 279.753906 191.445312 278.929688 190.277344 C 278.101562 189.109375 276.027344 185.410156 281.59375 178.222656 C 287.160156 171.035156 290.835938 167.652344 290.835938 167.652344 C 291.074219 165.015625 291.183594 163.707031 291.367188 161.113281 C 291.367188 161.113281 295.976562 158.722656 296.722656 156.3125 C 296.964844 155.527344 297.203125 155.25 297.453125 155.25 C 297.964844 155.25 298.511719 156.4375 299.179688 156.769531 C 300.152344 157.257812 302.5 158.246094 302.785156 158.246094 C 302.792969 158.246094 302.796875 158.246094 302.804688 158.246094 C 304.132812 157.9375 308.867188 155.910156 310.734375 155.910156 C 310.910156 155.910156 311.0625 155.929688 311.183594 155.96875 C 312.5625 156.433594 320.089844 157.519531 320.089844 157.519531 C 320.089844 157.519531 320.757812 157.179688 321.621094 157.179688 C 323.085938 157.179688 325.113281 158.15625 325.394531 163.414062 C 326.402344 165.976562 332.507812 167.617188 333.175781 167.996094 C 333.175781 167.996094 335.304688 170.003906 335.371094 171.132812 C 335.4375 172.257812 339.214844 172.929688 340.097656 173.703125 C 340.242188 173.835938 340.402344 173.886719 340.558594 173.886719 C 341.351562 173.886719 342.199219 172.558594 342.199219 172.558594 C 342.199219 172.558594 340.621094 169.066406 342.203125 169.066406 C 342.234375 169.066406 342.265625 169.066406 342.296875 169.070312 C 344.027344 169.207031 345.3125 169.914062 345.3125 169.914062 C 347.386719 171.261719 348.417969 171.925781 350.464844 173.242188 C 351.996094 173.621094 352.761719 173.8125 354.265625 174.199219 L 354.277344 174.199219 L 354.328125 174.449219 C 362.804688 215.34375 357.558594 253.1875 337.96875 290.089844 L 337.933594 290.15625 L 337.921875 290.164062 C 335.152344 292.777344 332.871094 294.894531 332.625 294.929688 C 331.949219 295.027344 328.09375 296.691406 325.777344 298.664062 C 325.152344 299.195312 324.605469 299.433594 324.195312 299.433594" fill="inherit"/><path d="M 342.898438 163.140625 C 342.777344 163.140625 342.714844 163.015625 342.714844 163.015625 C 342.714844 163.015625 339.980469 159.867188 339.8125 159.445312 C 339.738281 159.257812 339.980469 159.203125 340.273438 159.203125 C 340.632812 159.203125 341.0625 159.285156 341.0625 159.285156 C 341.023438 158.972656 341.007812 158.816406 340.96875 158.507812 C 340.96875 158.507812 337.808594 157.796875 337.378906 156.78125 C 336.941406 155.765625 334.40625 151.691406 334.40625 151.691406 C 334.40625 151.691406 332.71875 149.679688 330.746094 148.609375 C 328.777344 147.539062 326.015625 144.527344 325.429688 144.359375 C 324.84375 144.195312 323.933594 143.554688 323.589844 142.597656 C 323.472656 142.277344 323.191406 142.140625 322.90625 142.140625 C 322.335938 142.140625 321.753906 142.691406 322.460938 143.433594 C 323.519531 144.550781 326.542969 147.117188 327.585938 148.652344 C 328.628906 150.191406 332.554688 152.476562 333.714844 153.355469 C 334.871094 154.230469 334.925781 154.863281 334.925781 154.863281 C 333.847656 154.570312 333.304688 154.421875 332.21875 154.128906 C 332.21875 154.128906 332.765625 154.605469 332.976562 155.539062 C 333.191406 156.46875 332.859375 157.820312 332.578125 157.820312 C 332.574219 157.820312 332.574219 157.820312 332.570312 157.820312 C 332.285156 157.804688 331.210938 157.460938 331.210938 157.460938 C 330.929688 156.289062 330.785156 155.707031 330.488281 154.542969 C 330.488281 154.542969 325.492188 149.078125 324.160156 149.078125 C 324.132812 149.078125 324.101562 149.082031 324.074219 149.089844 C 324.046875 149.09375 324.015625 149.097656 323.984375 149.097656 C 322.71875 149.097656 319.378906 144.179688 319.332031 143.535156 C 319.308594 143.21875 318.691406 142.972656 317.980469 142.972656 C 317.195312 142.972656 316.300781 143.273438 315.972656 144.109375 C 315.765625 144.632812 315.308594 144.824219 314.777344 144.824219 C 313.683594 144.824219 312.265625 144.023438 312.011719 143.644531 C 311.867188 143.433594 311.425781 143.28125 310.980469 143.28125 C 310.246094 143.28125 309.503906 143.691406 310.058594 144.914062 C 310.527344 145.9375 310.558594 146.183594 310.480469 146.183594 C 310.410156 146.183594 310.25 145.976562 310.25 145.976562 C 310.25 145.976562 305.820312 148.605469 305.894531 150.933594 C 305.96875 153.210938 303.980469 154.59375 303.136719 154.59375 C 303.113281 154.59375 303.09375 154.59375 303.074219 154.589844 C 302.269531 154.523438 298.777344 154.109375 298.777344 154.109375 C 298.777344 154.109375 298.199219 154.472656 297.3125 154.472656 C 296.90625 154.472656 296.433594 154.394531 295.921875 154.171875 C 294.546875 153.578125 294.78125 151.839844 294.414062 151.839844 C 294.347656 151.839844 294.257812 151.898438 294.136719 152.035156 C 294.136719 152.035156 293.566406 152.238281 292.921875 152.238281 C 292.195312 152.238281 291.367188 151.980469 291.132812 150.890625 C 290.6875 148.828125 290.929688 143.589844 290.8125 142.097656 C 290.699219 140.613281 289.167969 138.195312 291.746094 138.195312 C 291.761719 138.195312 291.777344 138.195312 291.796875 138.195312 C 294.410156 138.222656 296.878906 140.464844 297.785156 140.464844 C 297.796875 140.464844 297.804688 140.464844 297.816406 140.464844 C 297.9375 140.457031 298.089844 140.453125 298.253906 140.453125 C 299.289062 140.453125 300.996094 140.578125 301.179688 140.617188 C 301.402344 140.617188 302.4375 136.8125 301.417969 135.230469 C 300.394531 133.640625 296.59375 131.691406 296.03125 130.699219 C 295.472656 129.707031 296.683594 129.75 299.28125 129.421875 C 299.730469 129.363281 300.117188 129.34375 300.453125 129.34375 C 300.976562 129.34375 301.375 129.394531 301.6875 129.445312 C 301.996094 129.496094 302.21875 129.546875 302.386719 129.546875 C 302.574219 129.546875 302.691406 129.484375 302.78125 129.289062 C 303.070312 128.6875 303.621094 127.125 304.796875 127.125 C 304.917969 127.125 305.046875 127.144531 305.183594 127.179688 C 305.265625 127.199219 305.347656 127.210938 305.4375 127.210938 C 306.882812 127.210938 308.957031 124.371094 308.957031 124.371094 C 310.105469 124.753906 310.679688 124.949219 311.816406 125.34375 C 311.816406 125.34375 312.855469 124.871094 312.226562 124.351562 C 311.597656 123.828125 309.3125 121.171875 309.800781 120.769531 C 310.261719 120.390625 310.828125 119.433594 311.199219 119.433594 C 311.226562 119.433594 311.25 119.4375 311.273438 119.445312 C 311.640625 119.589844 312.394531 122.257812 312.394531 122.257812 C 312.394531 122.257812 312.8125 122.144531 313.308594 122.144531 C 313.664062 122.144531 314.0625 122.203125 314.378906 122.394531 C 315.132812 122.859375 316.460938 124.339844 316.054688 124.480469 C 316.007812 124.496094 315.957031 124.503906 315.898438 124.503906 C 315.71875 124.503906 315.472656 124.441406 315.234375 124.378906 C 314.996094 124.316406 314.765625 124.257812 314.601562 124.257812 C 314.484375 124.257812 314.402344 124.289062 314.390625 124.378906 C 314.328125 124.726562 314.824219 126.054688 315.273438 126.054688 C 315.3125 126.054688 315.355469 126.042969 315.394531 126.019531 C 315.480469 125.96875 315.617188 125.945312 315.78125 125.945312 C 316.539062 125.945312 317.914062 126.390625 317.914062 126.390625 C 318.558594 126.949219 318.878906 127.230469 319.519531 127.789062 C 320.816406 127.8125 321.453125 127.835938 322.710938 127.902344 C 323.628906 128.46875 324.085938 128.753906 325.003906 129.320312 C 325.6875 128.976562 326.019531 128.816406 326.664062 128.511719 C 326.0625 127.261719 325.757812 126.636719 325.136719 125.402344 C 325.921875 125.769531 326.3125 125.957031 327.089844 126.328125 C 327.554688 126.660156 327.789062 126.828125 328.253906 127.160156 C 328.253906 127.160156 328.773438 127.03125 328.175781 126.304688 C 327.601562 125.609375 326.117188 123.921875 326.492188 123.921875 C 326.507812 123.921875 326.527344 123.925781 326.554688 123.933594 C 327.128906 124.097656 329.253906 125.5 329.253906 125.5 C 329.253906 125.5 330.855469 126.058594 331.363281 126.058594 C 331.515625 126.058594 331.566406 126.007812 331.441406 125.871094 C 331.441406 125.871094 328.722656 123.859375 328.523438 123.859375 C 328.523438 123.859375 328.523438 123.859375 328.519531 123.859375 C 328.515625 123.859375 328.511719 123.859375 328.503906 123.859375 C 328.269531 123.859375 326.695312 123.410156 326.484375 123.238281 C 326.269531 123.0625 323.234375 121.195312 323.082031 120.878906 C 322.929688 120.5625 320.292969 118.6875 320.492188 117.078125 C 320.691406 115.46875 320.855469 114.988281 320.074219 114.253906 C 319.753906 113.949219 319.167969 113.769531 318.609375 113.769531 C 317.816406 113.769531 317.085938 114.125 317.238281 114.964844 C 317.503906 116.402344 316.367188 115.882812 316.582031 116.476562 C 316.800781 117.074219 319.140625 119.472656 319.683594 119.6875 C 320.226562 119.902344 320.320312 121.175781 320.320312 121.175781 C 320.320312 121.175781 318.9375 121.378906 319.414062 123.152344 C 319.75 124.390625 319.050781 124.761719 318.414062 124.761719 C 318.140625 124.761719 317.878906 124.695312 317.714844 124.597656 C 317.175781 124.269531 314.859375 122.144531 314.859375 122.144531 C 314.859375 122.144531 311.726562 117.464844 310.949219 117.03125 C 310.84375 116.972656 310.738281 116.949219 310.636719 116.949219 C 310.34375 116.949219 310.070312 117.148438 309.828125 117.347656 C 309.585938 117.550781 309.367188 117.75 309.195312 117.75 C 309.15625 117.75 309.117188 117.738281 309.085938 117.714844 C 308.234375 117.382812 307.8125 117.21875 306.953125 116.890625 C 306.953125 116.890625 304.980469 115.53125 304.730469 114.542969 C 304.476562 113.554688 303.433594 111.589844 303.433594 111.589844 C 303.433594 111.589844 302.339844 109.320312 304.15625 109.320312 C 304.523438 109.320312 305.015625 109.414062 305.660156 109.640625 C 305.980469 109.769531 306.261719 109.828125 306.507812 109.828125 C 307.5 109.828125 307.96875 108.898438 308.558594 107.972656 C 309.152344 107.042969 309.867188 106.113281 311.363281 106.113281 C 312.519531 106.113281 314.140625 106.671875 316.527344 108.210938 C 316.527344 108.210938 321.371094 111.414062 325.324219 115.34375 C 325.5625 115.578125 325.800781 115.808594 326.039062 116.035156 L 326.078125 116.070312 C 326.710938 116.886719 327.023438 117.296875 327.644531 118.125 L 327.640625 118.121094 C 327.460938 117.996094 327.332031 117.914062 327.285156 117.910156 C 327.28125 117.910156 327.28125 117.910156 327.28125 117.910156 C 327.199219 117.910156 327.683594 118.441406 328.433594 119.199219 L 328.484375 119.253906 C 328.679688 119.519531 328.867188 119.796875 329.0625 120.0625 C 329.601562 120.804688 330.132812 121.546875 330.652344 122.296875 C 330.945312 122.710938 331.234375 123.128906 331.523438 123.550781 C 332.074219 124.355469 332.617188 125.164062 333.152344 125.976562 C 333.390625 126.339844 333.632812 126.699219 333.863281 127.0625 C 334.5625 128.140625 335.246094 129.222656 335.914062 130.316406 C 335.976562 130.417969 336.042969 130.519531 336.105469 130.621094 C 336.855469 131.851562 337.582031 133.089844 338.296875 134.335938 C 338.449219 134.605469 338.597656 134.875 338.746094 135.144531 C 339.289062 136.101562 339.820312 137.066406 340.34375 138.039062 C 340.558594 138.441406 340.769531 138.84375 340.980469 139.246094 C 341.429688 140.101562 341.871094 140.964844 342.308594 141.828125 C 342.523438 142.265625 342.742188 142.699219 342.960938 143.140625 C 343.386719 144.011719 343.808594 144.894531 344.21875 145.777344 C 344.40625 146.183594 344.601562 146.589844 344.789062 146.996094 C 345.296875 148.109375 345.789062 149.230469 346.273438 150.355469 C 346.335938 150.503906 346.402344 150.648438 346.46875 150.792969 L 346.46875 150.796875 C 346.351562 151.371094 346.511719 152.472656 346.292969 153.109375 C 346.027344 153.898438 347.472656 154.660156 348.136719 155.816406 C 348.21875 155.953125 348.410156 156.113281 348.664062 156.28125 L 348.679688 156.296875 C 348.789062 156.582031 348.84375 156.726562 348.949219 157.015625 L 348.9375 157.007812 C 348.550781 156.726562 348.09375 156.636719 347.660156 156.636719 C 346.816406 156.636719 346.058594 156.980469 346.058594 156.980469 C 346.058594 156.980469 344.460938 156.113281 343.894531 155.8125 C 343.8125 155.769531 343.738281 155.746094 343.667969 155.746094 C 343.285156 155.746094 343.140625 156.398438 342.894531 156.863281 C 342.816406 157.011719 342.695312 157.070312 342.558594 157.070312 C 342.1875 157.070312 341.683594 156.625 341.5625 156.359375 C 341.53125 156.285156 341.464844 156.25 341.382812 156.25 C 341.0625 156.25 340.558594 156.800781 341.472656 157.710938 C 342.613281 158.847656 344.175781 160.4375 343.609375 162.042969 C 343.292969 162.941406 343.050781 163.140625 342.898438 163.140625" fill="inherit"/><path d="M 323.835938 233.742188 C 323.5625 233.742188 323.363281 233.503906 323.386719 233.195312 L 323.402344 232.996094 C 323.429688 232.675781 323.683594 232.398438 323.976562 232.378906 C 323.988281 232.378906 323.996094 232.378906 324.007812 232.378906 C 324.28125 232.378906 324.484375 232.617188 324.460938 232.925781 L 324.441406 233.125 C 324.421875 233.445312 324.160156 233.722656 323.871094 233.742188 C 323.859375 233.742188 323.847656 233.742188 323.835938 233.742188" fill="inherit"/><path d="M 322.417969 236.109375 C 322.097656 236.109375 321.871094 235.835938 321.898438 235.476562 C 321.933594 235.097656 322.234375 234.773438 322.574219 234.746094 C 322.816406 234.730469 322.9375 234.722656 323.179688 234.703125 C 323.191406 234.703125 323.203125 234.703125 323.21875 234.703125 C 323.539062 234.703125 323.769531 234.980469 323.738281 235.339844 C 323.710938 235.710938 323.402344 236.035156 323.0625 236.0625 C 322.824219 236.082031 322.703125 236.089844 322.464844 236.109375 C 322.449219 236.109375 322.433594 236.109375 322.417969 236.109375" fill="inherit"/></g></svg>